<?xml version="1.0" encoding="UTF-8"?>
<!DOCTYPE svg PUBLIC "-//W3C//DTD SVG 1.1//EN" "http://www.w3.org/Graphics/SVG/1.1/DTD/svg11.dtd">
<!-- Creator: CorelDRAW Home & Student X7 -->
<svg xmlns="http://www.w3.org/2000/svg" xml:space="preserve" width="42.3333mm" height="43.2074mm" version="1.1" style="shape-rendering:geometricPrecision; text-rendering:geometricPrecision; image-rendering:optimizeQuality; fill-rule:evenodd; clip-rule:evenodd"
viewBox="0 0 226660 231340"
 xmlns:xlink="http://www.w3.org/1999/xlink">
 <defs>
  <style type="text/css">
   <![CDATA[
    .fil0 {fill:black}
   ]]>
  </style>
 </defs>
 <g id="Layer_x0020_1">
  <metadata id="CorelCorpID_0Corel-Layer"/>
  <g id="_673844840">
   <g>
    <path class="fil0" d="M113457 53371c524,18 1004,119 1396,254l54176 21670c1502,608 2556,2188 2539,3810l0 73137c0,1606 -1050,3164 -2539,3766l-54176 21670c-965,391 -2082,391 -3047,0l-54175 -21670c-1490,-602 -2540,-2160 -2540,-3766l0 -73137c-17,-1622 1037,-3202 2540,-3810l54175 -21670c558,-203 1126,-271 1651,-254zm-127 8423l-43172 17268 16084 6476 43213 -17311 -16125 -6433 0 0zm27087 10835l-43171 17268 16084 6476 43171 -17311 -16084 -6433zm23025 12486l-46049 18411 0 64375 46049 -18453 0 -64333zm-100225 0l0 64333 46049 18453 0 -64375 -18961 -7577 0 15661c0,18 1,38 1,57 0,2244 -1820,4064 -4064,4064 -2244,0 -4063,-1820 -4063,-4064 0,-19 0,-39 0,-57l0 -18919 -18961 -7576 -1 0z" display="inline"/>
   </g>
   <path class="fil0" d="M222939 125022l-4118 -5681c-1938,-2653 -1987,-6293 -44,-8992l4020 -5730c3169,-4498 4306,-10178 3033,-15576 -1280,-5398 -4781,-9984 -9660,-12588l-6156 -3313c-2938,-1563 -4493,-4781 -3974,-8051l1180 -6909c900,-5447 -566,-11032 -4020,-15338 -3501,-4311 -8667,-6909 -14153,-7148l-7009 -283c-3314,-144 -6159,-2372 -7053,-5542l-2034 -6678c-2367,-8189 -9991,-13914 -18559,-13914 -2603,0 -5207,522 -7623,1563l-6439 2743c-2982,1280 -6627,478 -8755,-1938l-4686 -5208c-3642,-4074 -8894,-6439 -14336,-6439 -5591,0 -10888,2416 -14584,6627l-4545 5303c-2128,2459 -5729,3313 -8755,2084l-6487 -2648c-2365,-948 -4825,-1467 -7337,-1467 -8659,0 -16329,5825 -18607,14202l-1846 6765c-853,3174 -3691,5447 -7004,5634l-6961 427c-5490,283 -10649,2982 -14057,7336 -3414,4354 -4782,9991 -3792,15387l1280 6865c615,3265 -948,6535 -3835,8141l-6105 3408c-4832,2699 -8284,7337 -9469,12734 -1185,5398 0,11076 3269,15526l4118 5634c1939,2656 1990,6295 44,8992l-4023 5729c-3169,4501 -4305,10179 -3030,15577 1280,5398 4780,9986 9657,12588l6156 3313c2938,1563 4493,4781 3971,8050l-1180 6910c-896,5439 566,11032 4023,15338 3501,4310 8668,6909 14150,7145l7010 283c3313,144 6156,2368 7053,5539l1938 6722c2365,8190 9992,13919 18556,13919 2604,0 5208,-519 7624,-1563l6432 -2745c2987,-1275 6634,-473 8760,1943l4688 5203c3658,4074 8910,6439 14351,6439 5591,0 10888,-2411 14585,-6626l4585 -5303c2134,-2460 5730,-3314 8761,-2085l6482 2652c2365,946 4833,1468 7341,1468 8660,0 16330,-5824 18600,-14202l1845 -6770c854,-3170 3697,-5439 7010,-5635l7004 -421c5543,-331 10653,-2987 14058,-7338 3414,-4358 4781,-9940 3792,-15382l-1281 -6866c-614,-3269 949,-6534 3836,-8141l6105 -3413c4832,-2696 8284,-7336 9472,-12732 1184,-5397 0,-11075 -3272,-15524zm-8046 13013c-470,2180 -1846,3980 -3784,5072l-6105 3408c-7245,4020 -11125,12210 -9613,20350l1280 6866c427,2229 -144,4406 -1511,6156 -1375,1753 -3365,2795 -5635,2933l-6961 427c-8284,478 -15337,6156 -17512,14158l-1846 6722c-899,3357 -3978,5678 -7431,5678 -999,0 -1989,-188 -2937,-566l-6489 -2653c-2367,-948 -4827,-1470 -7335,-1470 -5586,0 -10887,2417 -14578,6627l-4593 5262c-1468,1698 -3552,2645 -5824,2645 -2221,0 -4262,-898 -5725,-2553l-4688 -5208c-3645,-4071 -8899,-6439 -14389,-6439 -2656,0 -5208,520 -7625,1563l-6439 2740c-992,427 -1981,623 -3025,623 -3414,0 -6439,-2281 -7387,-5542l-1939 -6722c-2321,-7951 -9425,-13541 -17710,-13917l-7004 -282c-2229,-93 -4262,-1093 -5635,-2843 -1419,-1751 -1981,-3925 -1606,-6105l1180 -6909c1375,-8192 -2599,-16287 -9941,-20214l-6150 -3314c-1990,-1040 -3365,-2843 -3884,-5020 -520,-2177 -96,-4400 1231,-6200l4023 -5729c4780,-6763 4737,-15806 -188,-22527l-4118 -5635c-1324,-1802 -1802,-4023 -1280,-6200 478,-2177 1851,-3979 3792,-5064l6104 -3408c7241,-4023 11128,-12212 9608,-20358l-1230 -6814c-427,-2229 144,-4406 1511,-6156 1375,-1751 3365,-2792 5634,-2931l6961 -426c8285,-479 15286,-6157 17515,-14158l1845 -6766c898,-3365 3980,-5686 7432,-5686 997,0 1989,196 2938,571l6487 2648c2365,948 4825,1467 7337,1467 5585,0 10888,-2416 14576,-6626l4594 -5252c1467,-1706 3552,-2655 5825,-2655 2220,0 4261,905 5724,2560l4686 5203c3647,4071 8899,6439 14392,6439 2652,0 5207,-522 7624,-1563l6438 -2743c993,-427 1983,-614 3026,-614 3413,0 6439,2272 7387,5534l1938 6727c2321,7950 9426,13536 17711,13914l7004 287c2229,96 4262,1085 5681,2838 1424,1751 1987,3928 1612,6105l-1185 6915c-1376,8189 2604,16278 9940,20214l6156 3313c1989,1036 3359,2838 3879,5015 522,2177 100,4405 -1180,6200l-4020 5729c-4782,6771 -4740,15809 187,22538l4118 5627c1126,1796 1604,4017 1126,6194z"/>
  </g>
 </g>
</svg>
