<?xml version="1.0" encoding="UTF-8"?>
<!DOCTYPE svg PUBLIC "-//W3C//DTD SVG 1.1//EN" "http://www.w3.org/Graphics/SVG/1.1/DTD/svg11.dtd">
<!-- Creator: CorelDRAW Home & Student X7 -->
<svg xmlns="http://www.w3.org/2000/svg" xml:space="preserve" width="42.3333mm" height="42.3088mm" version="1.1" style="shape-rendering:geometricPrecision; text-rendering:geometricPrecision; image-rendering:optimizeQuality; fill-rule:evenodd; clip-rule:evenodd"
viewBox="0 0 21493 21480"
 xmlns:xlink="http://www.w3.org/1999/xlink">
 <defs>
  <style type="text/css">
   <![CDATA[
    .fil0 {fill:black}
   ]]>
  </style>
 </defs>
 <g id="Layer_x0020_1">
  <metadata id="CorelCorpID_0Corel-Layer"/>
  <g id="_600213488">
   <g>
    <circle class="fil0" cx="9108" cy="2492" r="605"/>
    <path class="fil0" d="M20154 4366c-1337,-1337 -3185,-1701 -4379,-947 -1637,-1084 -3359,-1397 -4239,-1485l0 -1337c0,-330 -266,-597 -597,-597l-3655 0c-330,0 -597,267 -597,597l0 3198 -232 0c-330,0 -597,267 -597,597l0 3355c-3562,3854 -6181,6769 -5826,9468 123,1507 973,2860 2594,4138 106,85 237,127 368,127l12231 0c136,0 263,-46 368,-127 1625,-1278 2471,-2631 2594,-4138 76,-2944 -1477,-4683 -5822,-9472l0 -3356c0,-330 -266,-596 -596,-596l-233 0 0 -656c753,89 2115,364 3423,1180 -609,1198 -220,2928 1053,4202 1494,1493 3635,1781 4781,634 1143,-1146 855,-3287 -639,-4785zm-12278 -3173l2463 0 0 2602 -2463 0 0 -2602zm-829 3795l4121 0 0 2391 -4121 0 0 -2391zm9951 12134c-89,1113 -740,2150 -1984,3169l-11809 0c-1180,-998 -1954,-2060 -1984,-3241l1422 0c330,0 596,-266 596,-596 0,-330 -266,-597 -596,-597l-1295 0c102,-393 262,-791 466,-1193l2618 0c330,0 597,-266 597,-596 0,-330 -267,-597 -597,-597l-1903 0c359,-525 778,-1053 1222,-1582l10717 0c1498,1777 2666,3558 2530,5233zm-3575 -6431l-8631 0 1925 -2123 4777 0 1929 2123zm6520 -2386c-664,664 -2082,377 -3093,-634 -1011,-1012 -1303,-2425 -635,-3093 669,-669 2082,-377 3093,634 1011,1012 1303,2425 635,3093z"/>
   </g>
  </g>
 </g>
</svg>
