<?xml version="1.0" encoding="UTF-8"?>
<!DOCTYPE svg PUBLIC "-//W3C//DTD SVG 1.1//EN" "http://www.w3.org/Graphics/SVG/1.1/DTD/svg11.dtd">
<!-- Creator: CorelDRAW Home & Student X7 -->
<svg xmlns="http://www.w3.org/2000/svg" xml:space="preserve" width="42.3333mm" height="43.2074mm" version="1.1" style="shape-rendering:geometricPrecision; text-rendering:geometricPrecision; image-rendering:optimizeQuality; fill-rule:evenodd; clip-rule:evenodd"
viewBox="0 0 40841 41684"
 xmlns:xlink="http://www.w3.org/1999/xlink">
 <defs>
  <style type="text/css">
   <![CDATA[
    .fil0 {fill:black}
   ]]>
  </style>
 </defs>
 <g id="Layer_x0020_1">
  <metadata id="CorelCorpID_0Corel-Layer"/>
  <g id="_595671264">
   <path class="fil0" d="M20416 8530c-6789,0 -12308,5518 -12308,12308 0,6781 5519,12308 12308,12308 6791,0 12309,-5528 12309,-12308 0,-6790 -5518,-12308 -12309,-12308zm0 22526c-5628,0 -10218,-4579 -10218,-10218 0,-5629 4580,-10218 10218,-10218 5638,0 10219,4588 10219,10218 0,5630 -4589,10218 -10219,10218z"/>
   <path class="fil0" d="M40171 22527l-742 -1024c-350,-477 -358,-1133 -8,-1620l724 -1032c571,-810 776,-1834 547,-2807 -231,-972 -862,-1799 -1741,-2268l-1109 -597c-530,-281 -810,-861 -716,-1450l212 -1245c162,-982 -102,-1988 -724,-2764 -631,-777 -1562,-1245 -2550,-1288l-1263 -51c-597,-26 -1110,-428 -1271,-999l-366 -1203c-427,-1476 -1801,-2507 -3344,-2507 -470,0 -939,94 -1374,282l-1160 494c-538,230 -1194,86 -1578,-349l-844 -939c-657,-734 -1603,-1160 -2583,-1160 -1008,0 -1962,435 -2628,1194l-819 955c-384,444 -1033,598 -1578,376l-1169 -477c-426,-171 -869,-264 -1322,-264 -1560,0 -2942,1049 -3352,2559l-333 1219c-154,572 -665,981 -1262,1015l-1254 77c-990,51 -1919,537 -2533,1322 -615,784 -862,1800 -683,2772l230 1237c111,588 -171,1177 -691,1467l-1100 614c-870,486 -1493,1322 -1706,2295 -214,972 0,1995 589,2797l742 1015c349,479 359,1135 8,1620l-725 1033c-571,811 -776,1834 -546,2807 231,972 861,1799 1740,2268l1109 597c530,281 810,861 716,1450l-213 1245c-161,980 102,1988 725,2764 631,777 1562,1245 2550,1288l1263 50c597,26 1109,427 1271,999l349 1211c426,1475 1800,2508 3344,2508 469,0 938,-94 1373,-282l1159 -494c538,-230 1196,-86 1579,350l844 937c659,734 1606,1160 2586,1160 1008,0 1962,-434 2628,-1194l826 -955c385,-443 1033,-597 1579,-376l1168 478c426,171 871,265 1323,265 1560,0 2942,-1050 3351,-2559l333 -1220c154,-571 666,-980 1263,-1016l1262 -76c998,-59 1919,-538 2533,-1322 615,-785 861,-1791 683,-2771l-231 -1238c-110,-589 171,-1177 691,-1466l1100 -615c871,-486 1493,-1322 1707,-2294 214,-973 0,-1996 -589,-2798zm-1450 2345c-85,393 -333,717 -682,914l-1100 614c-1305,724 -2004,2200 -1732,3667l231 1237c76,402 -26,794 -273,1109 -248,316 -606,504 -1015,529l-1254 77c-1493,86 -2764,1109 -3156,2551l-332 1211c-162,605 -717,1023 -1339,1023 -181,0 -359,-34 -530,-102l-1169 -478c-426,-171 -870,-265 -1322,-265 -1006,0 -1961,436 -2626,1194l-828 948c-264,306 -640,477 -1049,477 -400,0 -768,-162 -1032,-460l-845 -938c-656,-734 -1603,-1161 -2592,-1161 -479,0 -939,94 -1374,282l-1160 494c-179,77 -357,112 -545,112 -616,0 -1161,-411 -1332,-999l-349 -1211c-418,-1432 -1698,-2440 -3191,-2507l-1262 -51c-402,-17 -768,-197 -1015,-513 -256,-315 -357,-707 -290,-1100l213 -1245c248,-1476 -468,-2934 -1791,-3642l-1109 -597c-358,-188 -606,-512 -699,-904 -94,-393 -18,-793 221,-1118l725 -1032c862,-1219 854,-2848 -34,-4059l-741 -1015c-239,-325 -325,-725 -231,-1118 86,-392 333,-717 683,-912l1100 -614c1305,-725 2005,-2201 1731,-3668l-221 -1228c-77,-402 25,-794 272,-1109 248,-316 606,-503 1015,-528l1254 -77c1493,-86 2755,-1110 3156,-2551l333 -1219c161,-607 717,-1025 1339,-1025 179,0 358,35 529,103l1169 477c426,171 870,264 1322,264 1007,0 1962,-435 2627,-1194l827 -946c265,-307 640,-478 1050,-478 400,0 768,163 1031,461l845 937c657,734 1603,1161 2593,1161 478,0 938,-94 1374,-282l1160 -494c179,-77 357,-111 545,-111 615,0 1160,410 1331,997l349 1212c418,1433 1699,2439 3191,2507l1263 52c401,18 767,196 1023,512 257,315 358,707 291,1100l-214 1246c-248,1475 469,2933 1791,3642l1109 597c359,187 606,511 699,904 94,392 18,793 -212,1117l-725 1032c-861,1220 -854,2848 34,4061l742 1014c203,324 289,724 203,1116z"/>
   <path class="fil0" d="M23444 17452l-4571 4546 -1485 -1493c-410,-409 -1066,-409 -1476,0 -409,409 -409,1066 -8,1476l2227 2235c195,196 460,307 742,307 272,0 537,-111 733,-307l5314 -5280c410,-410 410,-1066 9,-1476 -409,-409 -1075,-409 -1485,-8z"/>
  </g>
 </g>
</svg>
