<?xml version="1.0" encoding="UTF-8"?>
<!DOCTYPE svg PUBLIC "-//W3C//DTD SVG 1.1//EN" "http://www.w3.org/Graphics/SVG/1.1/DTD/svg11.dtd">
<!-- Creator: CorelDRAW Home & Student X7 -->
<svg xmlns="http://www.w3.org/2000/svg" xml:space="preserve" width="42.3333mm" height="27.9836mm" version="1.1" style="shape-rendering:geometricPrecision; text-rendering:geometricPrecision; image-rendering:optimizeQuality; fill-rule:evenodd; clip-rule:evenodd"
viewBox="0 0 39032 25801"
 xmlns:xlink="http://www.w3.org/1999/xlink">
 <defs>
  <style type="text/css">
   <![CDATA[
    .fil0 {fill:black}
   ]]>
  </style>
 </defs>
 <g id="Layer_x0020_1">
  <metadata id="CorelCorpID_0Corel-Layer"/>
  <g id="_598215480">
   <g>
    <path class="fil0" d="M38895 12962l-5033 -8109c-166,-267 -458,-429 -772,-429l-7089 0c-85,-748 -376,-2046 -1356,-3052 -887,-910 -2107,-1372 -3628,-1372l-13437 0c-502,0 -909,407 -909,909l0 2234 -2699 0c-502,0 -908,406 -908,908 0,502 406,909 908,909l9448 0c501,0 908,-407 908,-909 0,-501 -406,-908 -908,-908l-4932 0 0 -1326 12530 0c1005,0 1785,274 2316,814 897,911 886,2335 885,2369l0 14824c0,0 -6662,11 -6732,28 -631,-1652 -2227,-2830 -4099,-2830 -1860,0 -3449,1165 -4087,2802l-813 0 0 -3903c0,-501 -406,-908 -909,-908l-5732 0c-502,0 -909,406 -909,908 0,502 406,909 909,909l4824 0 0 3902c0,502 406,909 909,909l1431 0c120,2313 2035,4160 4377,4160 2344,0 4259,-1847 4379,-4160l8790 0c120,2313 2035,4160 4377,4160 2343,0 4257,-1847 4376,-4160l2813 0c502,0 909,-407 909,-909l0 -7291c0,-169 -48,-335 -137,-479zm-25507 11022c-1418,0 -2572,-1154 -2572,-2573 0,-1418 1154,-2572 2572,-2572 1419,0 2574,1154 2574,2572 0,1419 -1155,2573 -2574,2573zm17547 0c-1419,0 -2573,-1154 -2573,-2573 0,-1418 1154,-2572 2573,-2572 1418,0 2571,1154 2571,2572 0,1419 -1153,2573 -2571,2573zm4086 -4161c-638,-1637 -2227,-2802 -4086,-2802 -1860,0 -3449,1165 -4087,2802l-812 0 0 -13582 6549 0 3652 5883 -6528 0 0 -2643 1502 0c502,0 909,-406 909,-908 0,-502 -407,-908 -909,-908l-2411 0c-502,0 -908,406 -908,908l0 4459c0,502 406,909 908,909l8415 0 0 5883 -2194 0 0 -1z"/>
    <path class="fil0" d="M7580 6291c-502,0 -909,408 -909,909l0 3815 -3340 0c-502,0 -909,407 -909,909 0,502 407,909 909,909l7388 0c501,0 908,-408 908,-909 0,-502 -406,-909 -908,-909l-2231 0 0 -3815c0,-501 -406,-909 -908,-909z"/>
    <path class="fil0" d="M1847 8109l2664 0c502,0 909,-407 909,-909 0,-502 -406,-909 -909,-909l-2664 0c-502,0 -909,407 -909,909 0,502 407,909 909,909z"/>
    <path class="fil0" d="M1877 11924c0,-501 -406,-909 -908,-909l-61 0c-501,0 -908,407 -908,909 0,502 406,909 908,909l61 0c502,0 908,-408 908,-909z"/>
   </g>
  </g>
 </g>
</svg>
