<?xml version="1.0" encoding="UTF-8"?>
<!DOCTYPE svg PUBLIC "-//W3C//DTD SVG 1.1//EN" "http://www.w3.org/Graphics/SVG/1.1/DTD/svg11.dtd">
<!-- Creator: CorelDRAW Home & Student X7 -->
<svg xmlns="http://www.w3.org/2000/svg" xml:space="preserve" width="45.1554mm" height="40.2792mm" version="1.1" style="shape-rendering:geometricPrecision; text-rendering:geometricPrecision; image-rendering:optimizeQuality; fill-rule:evenodd; clip-rule:evenodd"
viewBox="0 0 223682 199527"
 xmlns:xlink="http://www.w3.org/1999/xlink">
 <defs>
  <style type="text/css">
   <![CDATA[
    .fil0 {fill:#86EF38}
   ]]>
  </style>
 </defs>
 <g id="Layer_x0020_1">
  <metadata id="CorelCorpID_0Corel-Layer"/>
  <path class="fil0" d="M85629 111842l-39918 -47590c-11187,-7754 -19337,4607 -26052,11329 -10892,10903 -18572,16717 -19659,23331l0 3269c624,3930 3483,8407 9176,14465l63464 72842c6680,8834 15048,15294 24782,4047l25345 -30575c6291,-6765 11048,-12818 16789,-19908l34673 -40471c6306,-7444 11179,-13517 17457,-20988 6093,-7249 31996,-33947 31996,-43147 0,-8201 -32929,-38516 -36698,-38446 -12100,228 -14639,7893 -24209,19713l-64914 78148c-2299,2960 -9669,12102 -12232,13981z"/>
 </g>
</svg>
