<?xml version="1.0" encoding="UTF-8"?>
<!DOCTYPE svg PUBLIC "-//W3C//DTD SVG 1.1//EN" "http://www.w3.org/Graphics/SVG/1.1/DTD/svg11.dtd">
<!-- Creator: CorelDRAW Home & Student X7 -->
<svg xmlns="http://www.w3.org/2000/svg" xml:space="preserve" width="42.3334mm" height="43.2074mm" version="1.1" style="shape-rendering:geometricPrecision; text-rendering:geometricPrecision; image-rendering:optimizeQuality; fill-rule:evenodd; clip-rule:evenodd"
viewBox="0 0 117176 119595"
 xmlns:xlink="http://www.w3.org/1999/xlink">
 <defs>
  <style type="text/css">
   <![CDATA[
    .fil1 {fill:#2B2A29}
    .fil0 {fill:black}
   ]]>
  </style>
 </defs>
 <g id="Layer_x0020_1">
  <metadata id="CorelCorpID_0Corel-Layer"/>
  <g id="_446721280">
   <path class="fil0" d="M87981 46008c-3515,-7785 -9922,-13816 -17960,-16955 -8041,-3017 -16830,-2763 -24745,752 -11052,5025 -18339,15576 -18968,27634 -124,629 0,1129 253,1634 0,0 0,126 126,126l0 125c503,1005 1508,1632 2765,1632 1757,125 3390,-1255 3515,-3140 502,-9545 6281,-17962 15074,-21854 12811,-5906 28135,-127 33912,12811 5777,12938 0,28136 -12811,33915 -5276,2385 -11179,2888 -16706,1505l379 -626c377,-629 377,-1509 -128,-2138 -378,-626 -1005,-1002 -1757,-1002l-9169 250c-755,0 -1383,378 -1760,1129 -377,630 -377,1383 0,2011l4774 7788c376,629 1131,1131 1884,1006 753,0 1382,-377 1759,-1006l752 -1382c3139,1005 6532,1508 9797,1382 4523,0 8793,-1004 12814,-2764 7912,-3641 13943,-10048 16955,-18088 3139,-8039 2889,-16831 -755,-24745z"/>
   <path class="fil0" d="M115252 64632l-2129 -2937c-1002,-1371 -1027,-3253 -22,-4648l2078 -2962c1638,-2326 2226,-5262 1568,-8053 -662,-2790 -2472,-5161 -4994,-6507l-3182 -1713c-1519,-808 -2323,-2472 -2055,-4162l610 -3572c465,-2816 -292,-5703 -2078,-7929 -1810,-2228 -4481,-3572 -7317,-3695l-3623 -147c-1713,-74 -3184,-1226 -3647,-2865l-1051 -3452c-1224,-4233 -5165,-7193 -9594,-7193 -1346,0 -2692,270 -3941,808l-3329 1418c-1541,662 -3426,247 -4526,-1002l-2423 -2692c-1883,-2106 -4597,-3329 -7410,-3329 -2891,0 -5629,1249 -7540,3426l-2350 2741c-1100,1272 -2962,1713 -4525,1078l-3355 -1369c-1222,-490 -2494,-759 -3792,-759 -4477,0 -8442,3012 -9619,7342l-955 3498c-441,1641 -1908,2815 -3621,2913l-3598 220c-2839,146 -5506,1542 -7268,3792 -1764,2252 -2471,5166 -1960,7955l662 3549c318,1688 -490,3378 -1982,4209l-3156 1762c-2498,1395 -4283,3792 -4896,6583 -612,2790 0,5726 1691,8026l2128 2913c1002,1372 1029,3254 23,4648l-2080 2962c-1638,2327 -2226,5262 -1566,8053 661,2790 2471,5162 4992,6507l3182 1713c1519,808 2323,2471 2054,4162l-610 3572c-464,2811 292,5703 2079,7929 1810,2228 4481,3572 7316,3694l3623 146c1713,74 3183,1224 3647,2864l1002 3475c1222,4233 5165,7195 9592,7195 1346,0 2692,-268 3942,-808l3324 -1419c1544,-659 3430,-244 4529,1005l2424 2689c1891,2107 4605,3329 7419,3329 2890,0 5629,-1246 7540,-3425l2370 -2742c1103,-1272 2962,-1713 4529,-1078l3351 1372c1223,489 2498,759 3795,759 4477,0 8442,-3012 9616,-7342l954 -3500c441,-1639 1911,-2812 3624,-2913l3621 -218c2865,-172 5506,-1544 7267,-3794 1765,-2253 2472,-5139 1960,-7952l-662 -3549c-317,-1690 491,-3378 1983,-4209l3156 -1764c2498,-1394 4283,-3793 4897,-6582 612,-2790 0,-5726 -1692,-8026zm-4159 6728c-243,1127 -954,2057 -1956,2622l-3156 1762c-3746,2078 -5751,6312 -4970,10520l662 3549c220,1152 -75,2278 -782,3183 -710,906 -1739,1444 -2912,1516l-3599 221c-4283,247 -7929,3182 -9053,7319l-954 3475c-465,1735 -2058,2935 -3842,2935 -517,0 -1029,-97 -1519,-292l-3354 -1372c-1224,-490 -2495,-760 -3792,-760 -2888,0 -5628,1249 -7536,3426l-2375 2720c-759,879 -1836,1368 -3011,1368 -1148,0 -2203,-464 -2959,-1320l-2424 -2692c-1884,-2105 -4600,-3329 -7439,-3329 -1373,0 -2692,269 -3941,808l-3329 1417c-513,220 -1024,321 -1564,321 -1765,0 -3329,-1179 -3819,-2865l-1002 -3475c-1200,-4110 -4873,-7000 -9155,-7194l-3622 -146c-1152,-48 -2203,-565 -2912,-1470 -734,-905 -1025,-2029 -831,-3156l610 -3572c711,-4235 -1344,-8419 -5139,-10450l-3180 -1713c-1028,-538 -1739,-1469 -2007,-2595 -269,-1125 -50,-2275 636,-3205l2080 -2962c2471,-3496 2449,-8171 -97,-11646l-2129 -2913c-684,-931 -932,-2079 -662,-3205 247,-1125 957,-2057 1960,-2618l3156 -1762c3744,-2079 5753,-6313 4967,-10524l-636 -3523c-221,-1152 74,-2277 781,-3182 711,-905 1740,-1443 2913,-1515l3598 -221c4283,-247 7903,-3182 9055,-7319l954 -3498c464,-1739 2057,-2939 3842,-2939 515,0 1028,101 1519,295l3354 1369c1222,490 2494,759 3792,759 2888,0 5629,-1250 7536,-3426l2375 -2715c758,-882 1836,-1373 3011,-1373 1148,0 2203,468 2959,1324l2423 2690c1885,2104 4600,3328 7440,3328 1371,0 2692,-270 3941,-808l3329 -1418c513,-220 1024,-317 1564,-317 1764,0 3329,1175 3819,2861l1002 3477c1200,4111 4873,6998 9156,7193l3621 149c1152,49 2203,561 2936,1467 736,905 1028,2031 833,3156l-612 3575c-711,4233 1346,8415 5138,10450l3183 1712c1028,536 1737,1468 2005,2593 270,1126 52,2278 -610,3205l-2078 2962c-2472,3500 -2450,8173 97,11651l2129 2909c582,929 829,2077 582,3203z"/>
   <path class="fil1" d="M69201 71049c0,461 -16,858 -56,1181 -41,324 -106,582 -178,792 -81,203 -186,348 -308,437 -129,89 -274,129 -428,129l-17635 0c-348,0 -647,-32 -898,-97 -250,-64 -460,-185 -614,-363 -162,-186 -275,-445 -348,-793 -72,-347 -105,-800 -105,-1350 0,-526 24,-970 73,-1342 48,-372 129,-704 258,-995 130,-291 292,-574 486,-849 202,-283 453,-582 776,-914l5312 -5676c1060,-1108 1917,-2110 2563,-3024 647,-905 1157,-1738 1521,-2490 364,-752 606,-1439 744,-2070 137,-631 202,-1237 202,-1803 0,-518 -81,-1011 -251,-1480 -162,-461 -412,-865 -736,-1213 -323,-348 -728,-614 -1221,-816 -485,-194 -1059,-292 -1730,-292 -930,0 -1755,122 -2474,356 -720,235 -1351,502 -1892,793 -550,299 -1003,566 -1367,808 -364,251 -647,372 -849,372 -145,0 -267,-48 -372,-146 -105,-88 -186,-250 -250,-468 -57,-227 -114,-518 -154,-898 -41,-372 -57,-825 -57,-1358 0,-364 8,-672 33,-922 24,-243 64,-453 113,-639 40,-178 105,-339 186,-477 81,-129 218,-291 412,-485 202,-186 566,-429 1092,-720 533,-299 1180,-582 1957,-857 776,-275 1625,-509 2563,-703 929,-186 1900,-283 2910,-283 1601,0 2992,202 4189,606 1188,404 2183,962 2975,1682 793,720 1375,1569 1763,2555 388,986 582,2046 582,3186 0,994 -97,1973 -283,2935 -194,970 -590,2005 -1188,3121 -599,1108 -1448,2345 -2539,3695 -1092,1350 -2539,2919 -4342,4706l-3582 3663 12080 0c162,0 307,49 437,145 137,90 250,235 347,437 97,194 162,453 211,776 48,324 72,712 72,1148z"/>
  </g>
 </g>
</svg>
