<?xml version="1.0" encoding="UTF-8"?>
<!DOCTYPE svg PUBLIC "-//W3C//DTD SVG 1.1//EN" "http://www.w3.org/Graphics/SVG/1.1/DTD/svg11.dtd">
<!-- Creator: CorelDRAW Home & Student X7 -->
<svg xmlns="http://www.w3.org/2000/svg" xml:space="preserve" width="42.3332mm" height="37.63mm" version="1.1" style="shape-rendering:geometricPrecision; text-rendering:geometricPrecision; image-rendering:optimizeQuality; fill-rule:evenodd; clip-rule:evenodd"
viewBox="0 0 92411 82144"
 xmlns:xlink="http://www.w3.org/1999/xlink">
 <defs>
  <style type="text/css">
   <![CDATA[
    .fil0 {fill:#FEFEFE}
   ]]>
  </style>
 </defs>
 <g id="Layer_x0020_1">
  <metadata id="CorelCorpID_0Corel-Layer"/>
  <g id="_446719624">
   <path class="fil0" d="M3080 0c-1701,0 -3080,1379 -3080,3081 0,1701 1379,3080 3080,3080l10236 0c5098,12627 10120,25277 15177,37927l-4652 11199c-390,933 -280,2059 282,2900 563,841 1562,1372 2574,1367l51339 0c1628,23 3125,-1452 3125,-3080 0,-1628 -1497,-3103 -3125,-3080l-46719 0 2663 -6354 49447 -3947c1294,-101 2466,-1109 2760,-2374l6160 -26697c403,-1798 -1173,-3760 -3016,-3754l-67736 0 -3337 -8343c-457,-1129 -1638,-1925 -2856,-1925l-12322 0zm20985 16429l19060 0 0 9241 -15370 0 -3690 -9241zm25221 0l12322 0 0 9241 -12322 0 0 -9241zm18482 0l17681 0 -2118 9241 -15563 0 0 -9241zm-37542 15402l12899 0 0 8310 -9273 738 -3626 -9048zm19060 0l12322 0 0 6834 -12322 995 0 -7829zm18482 0l14119 0 -1219 5326 -12900 1027 0 -6353zm-30803 29777c-5635,0 -10268,4633 -10268,10268 0,5634 4633,10268 10268,10268 5634,0 10267,-4634 10267,-10268 0,-5635 -4633,-10268 -10267,-10268zm30803 0c-5634,0 -10267,4633 -10267,10268 0,5634 4633,10268 10267,10268 5635,0 10268,-4634 10268,-10268 0,-5635 -4633,-10268 -10268,-10268zm-30803 6161c2304,0 4107,1802 4107,4107 0,2305 -1803,4107 -4107,4107 -2305,0 -4108,-1802 -4108,-4107 0,-2305 1803,-4107 4108,-4107zm30803 0c2305,0 4108,1802 4108,4107 0,2305 -1803,4107 -4108,4107 -2305,0 -4107,-1802 -4107,-4107 0,-2305 1802,-4107 4107,-4107z" display="inline"/>
  </g>
 </g>
</svg>
