<?xml version="1.0" encoding="UTF-8"?>
<!DOCTYPE svg PUBLIC "-//W3C//DTD SVG 1.1//EN" "http://www.w3.org/Graphics/SVG/1.1/DTD/svg11.dtd">
<!-- Creator: CorelDRAW Home & Student X7 -->
<svg xmlns="http://www.w3.org/2000/svg" xml:space="preserve" width="42.3333mm" height="43.2074mm" version="1.1" style="shape-rendering:geometricPrecision; text-rendering:geometricPrecision; image-rendering:optimizeQuality; fill-rule:evenodd; clip-rule:evenodd"
viewBox="0 0 79394 81033"
 xmlns:xlink="http://www.w3.org/1999/xlink">
 <defs>
  <style type="text/css">
   <![CDATA[
    .fil0 {fill:black}
   ]]>
  </style>
 </defs>
 <g id="Layer_x0020_1">
  <metadata id="CorelCorpID_0Corel-Layer"/>
  <g id="_446735488">
   <path class="fil0" d="M39689 16583c-13198,0 -23927,10727 -23927,23925 0,13182 10729,23926 23927,23926 13200,0 23927,-10745 23927,-23926 0,-13198 -10727,-23925 -23927,-23925zm0 43790c-10942,0 -19865,-8902 -19865,-19865 0,-10943 8905,-19863 19865,-19863 10960,0 19865,8920 19865,19863 0,10945 -8920,19865 -19865,19865z"/>
   <path class="fil0" d="M78091 43792l-1443 -1990c-678,-929 -696,-2204 -15,-3149l1408 -2007c1110,-1576 1508,-3565 1063,-5456 -449,-1891 -1675,-3497 -3384,-4409l-2156 -1161c-1029,-547 -1574,-1675 -1392,-2820l413 -2420c315,-1908 -198,-3865 -1408,-5373 -1227,-1510 -3036,-2420 -4958,-2504l-2455 -99c-1160,-50 -2157,-831 -2471,-1941l-712 -2339c-829,-2869 -3500,-4874 -6500,-4874 -912,0 -1825,183 -2671,548l-2255 960c-1045,449 -2322,168 -3067,-679l-1641 -1824c-1276,-1427 -3116,-2255 -5022,-2255 -1958,0 -3814,846 -5109,2321l-1591 1858c-746,861 -2007,1160 -3067,730l-2273 -928c-828,-332 -1690,-514 -2569,-514 -3034,0 -5720,2041 -6518,4975l-646 2370c-299,1112 -1293,1908 -2454,1973l-2438 150c-1923,99 -3730,1044 -4924,2569 -1196,1526 -1675,3500 -1328,5390l448 2405c215,1143 -332,2289 -1343,2851l-2139 1194c-1692,946 -2902,2570 -3317,4461 -415,1891 0,3879 1146,5438l1442 1973c679,931 697,2206 15,3150l-1409 2007c-1110,1577 -1508,3565 -1061,5456 448,1891 1674,3498 3382,4409l2157 1161c1029,547 1574,1675 1391,2820l-413 2420c-315,1905 198,3865 1409,5373 1226,1510 3036,2420 4956,2503l2456 99c1160,50 2156,829 2470,1940l679 2354c828,2869 3500,4876 6500,4876 912,0 1824,-182 2670,-547l2253 -962c1046,-447 2324,-166 3068,681l1643 1822c1281,1427 3120,2255 5027,2255 1958,0 3814,-844 5108,-2321l1606 -1857c748,-862 2007,-1161 3069,-730l2271 929c828,331 1692,514 2571,514 3033,0 5720,-2040 6515,-4975l647 -2371c299,-1110 1294,-1905 2455,-1974l2454 -147c1941,-117 3731,-1047 4924,-2571 1195,-1526 1674,-3482 1328,-5388l-449 -2405c-215,-1145 333,-2288 1344,-2851l2138 -1196c1693,-944 2902,-2570 3318,-4460 415,-1890 0,-3879 -1146,-5438zm-2818 4559c-165,763 -647,1394 -1326,1776l-2138 1194c-2538,1408 -3897,4277 -3368,7128l449 2405c149,781 -51,1543 -530,2157 -481,614 -1178,978 -1973,1027l-2438 150c-2902,167 -5373,2156 -6135,4959l-646 2354c-315,1176 -1394,1989 -2603,1989 -350,0 -697,-66 -1029,-198l-2273 -929c-829,-332 -1691,-515 -2569,-515 -1957,0 -3813,846 -5106,2321l-1609 1843c-514,595 -1245,927 -2041,927 -777,0 -1492,-315 -2005,-894l-1642 -1825c-1277,-1426 -3117,-2255 -5040,-2255 -930,0 -1824,182 -2671,547l-2255 960c-348,150 -694,218 -1060,218 -1196,0 -2255,-799 -2588,-1941l-678 -2355c-814,-2784 -3302,-4743 -6204,-4874l-2454 -99c-780,-33 -1492,-383 -1973,-996 -497,-613 -694,-1375 -563,-2139l413 -2420c482,-2869 -910,-5704 -3481,-7080l-2155 -1161c-697,-365 -1178,-996 -1360,-1758 -182,-763 -34,-1542 431,-2172l1409 -2007c1675,-2369 1659,-5536 -66,-7891l-1442 -1973c-464,-631 -631,-1409 -448,-2172 167,-763 648,-1394 1328,-1774l2138 -1194c2536,-1409 3898,-4277 3365,-7131l-431 -2386c-149,-781 51,-1544 530,-2157 481,-613 1178,-978 1973,-1026l2438 -150c2902,-167 5355,-2156 6136,-4959l646 -2370c314,-1178 1394,-1991 2603,-1991 349,0 697,68 1029,200l2273 927c828,332 1690,514 2569,514 1957,0 3814,-846 5106,-2321l1609 -1840c514,-598 1245,-930 2041,-930 778,0 1492,317 2005,897l1641 1822c1278,1427 3117,2256 5041,2256 929,0 1824,-183 2671,-548l2255 -960c348,-150 694,-215 1060,-215 1196,0 2255,795 2588,1938l678 2356c813,2785 3302,4742 6204,4874l2454 101c780,33 1492,380 1989,994 499,613 696,1376 565,2138l-415 2422c-482,2869 912,5702 3481,7081l2157 1160c697,363 1177,994 1359,1757 182,763 35,1543 -414,2172l-1408 2007c-1675,2371 -1660,5537 66,7894l1442 1971c395,629 562,1407 395,2170z"/>
   <path class="fil0" d="M45576 33927l-8888 8836 -2887 -2902c-795,-796 -2072,-796 -2868,0 -796,796 -796,2073 -15,2870l4328 4345c380,380 895,596 1442,596 529,0 1044,-216 1426,-596l10330 -10265c796,-796 796,-2073 18,-2869 -796,-796 -2090,-796 -2886,-15z"/>
  </g>
 </g>
</svg>
