<?xml version="1.0" encoding="UTF-8"?>
<!DOCTYPE svg PUBLIC "-//W3C//DTD SVG 1.1//EN" "http://www.w3.org/Graphics/SVG/1.1/DTD/svg11.dtd">
<!-- Creator: CorelDRAW Home & Student X7 -->
<svg xmlns="http://www.w3.org/2000/svg" xml:space="preserve" width="42.3333mm" height="40.5694mm" version="1.1" style="shape-rendering:geometricPrecision; text-rendering:geometricPrecision; image-rendering:optimizeQuality; fill-rule:evenodd; clip-rule:evenodd"
viewBox="0 0 20709 19846"
 xmlns:xlink="http://www.w3.org/1999/xlink">
 <defs>
  <style type="text/css">
   <![CDATA[
    .fil0 {fill:black}
   ]]>
  </style>
 </defs>
 <g id="Layer_x0020_1">
  <metadata id="CorelCorpID_0Corel-Layer"/>
  <g id="_435600872">
   <path class="fil0" d="M5400 0c-358,0 -647,290 -647,647l0 2488c-751,269 -1295,989 -1295,1827 0,1064 877,1941 1942,1941 1064,0 1941,-877 1941,-1941 0,-838 -544,-1558 -1294,-1827l0 -2488c0,-357 -290,-647 -647,-647zm9923 0c-357,0 -647,290 -647,647l0 2488c-751,269 -1294,989 -1294,1827 0,1064 876,1941 1941,1941 1065,0 1941,-877 1941,-1941 0,-838 -543,-1558 -1294,-1827l0 -2488c0,-357 -290,-647 -647,-647zm-12943 1294c-1307,0 -2380,1073 -2380,2380l0 13793c0,1307 1073,2379 2380,2379l15950 0c1307,0 2379,-1072 2379,-2379l0 -13793c0,-1307 -1072,-2380 -2379,-2380l-1288 0c-342,-4 -654,306 -654,648 0,341 312,652 654,647l1288 0c611,0 1085,474 1085,1085l0 3661 -18121 0 0 -3661c0,-611 475,-1085 1086,-1085l1287 0c342,4 654,-306 654,-647 0,-342 -312,-652 -654,-648l-1287 0zm4739 0c-358,0 -647,290 -647,648 0,357 289,647 647,647l6471 0c358,0 648,-290 648,-647 0,-358 -290,-648 -648,-648l-6471 0zm-1719 3020c365,0 647,283 647,648 0,365 -282,647 -647,647 -365,0 -647,-282 -647,-647 0,-365 282,-648 647,-648zm9923 0c365,0 647,283 647,648 0,365 -282,647 -647,647 -365,0 -647,-282 -647,-647 0,-365 282,-648 647,-648zm-14029 4315l18121 0 0 8838c0,611 -474,1085 -1085,1085l-15950 0c-611,0 -1086,-474 -1086,-1085l0 -8838z" display="inline"/>
  </g>
 </g>
</svg>
