<?xml version="1.0" encoding="UTF-8"?>
<!DOCTYPE svg PUBLIC "-//W3C//DTD SVG 1.1//EN" "http://www.w3.org/Graphics/SVG/1.1/DTD/svg11.dtd">
<!-- Creator: CorelDRAW Home & Student X7 -->
<svg xmlns="http://www.w3.org/2000/svg" xml:space="preserve" width="42.3333mm" height="43.2074mm" version="1.1" style="shape-rendering:geometricPrecision; text-rendering:geometricPrecision; image-rendering:optimizeQuality; fill-rule:evenodd; clip-rule:evenodd"
viewBox="0 0 34242 34949"
 xmlns:xlink="http://www.w3.org/1999/xlink">
 <defs>
  <style type="text/css">
   <![CDATA[
    .fil1 {fill:#2B2A29}
    .fil0 {fill:black}
   ]]>
  </style>
 </defs>
 <g id="Layer_x0020_1">
  <metadata id="CorelCorpID_0Corel-Layer"/>
  <g id="_446725648">
   <path class="fil0" d="M33680 18887l-622 -858c-293,-401 -300,-951 -7,-1358l608 -866c478,-679 650,-1538 458,-2353 -193,-816 -722,-1508 -1459,-1902l-930 -500c-444,-236 -679,-723 -601,-1216l178 -1044c136,-823 -85,-1667 -607,-2317 -529,-652 -1309,-1044 -2138,-1080l-1059 -43c-501,-22 -930,-358 -1066,-837l-307 -1009c-357,-1237 -1509,-2102 -2803,-2102 -394,0 -787,79 -1152,236l-973 414c-450,194 -1001,72 -1323,-292l-708 -787c-550,-616 -1343,-973 -2165,-973 -845,0 -1645,365 -2204,1001l-686 801c-322,372 -866,501 -1323,315l-980 -400c-357,-143 -729,-222 -1108,-222 -1308,0 -2467,880 -2811,2146l-279 1022c-129,480 -558,823 -1058,851l-1052 65c-829,42 -1609,450 -2124,1108 -515,658 -722,1509 -572,2324l193 1038c93,493 -143,987 -579,1229l-923 515c-730,408 -1251,1109 -1430,1924 -179,816 0,1673 494,2346l622 851c293,401 300,951 6,1358l-607 866c-479,680 -651,1538 -458,2353 193,816 722,1509 1459,1902l930 500c444,236 679,722 600,1216l-178 1044c-136,822 85,1667 607,2317 529,652 1310,1044 2138,1080l1059 43c501,21 930,357 1066,836l292 1016c358,1237 1510,2103 2804,2103 393,0 786,-79 1151,-236l972 -415c451,-193 1002,-72 1323,293l709 786c552,616 1346,973 2168,973 844,0 1645,-364 2203,-1001l693 -801c322,-372 865,-501 1323,-315l980 401c357,143 730,222 1109,222 1308,0 2467,-880 2810,-2146l278 -1023c129,-479 559,-822 1059,-851l1059 -64c837,-50 1609,-451 2123,-1108 516,-659 723,-1502 573,-2324l-193 -1037c-93,-494 143,-987 579,-1230l922 -516c730,-407 1252,-1108 1431,-1923 179,-816 0,-1673 -494,-2346zm-1215 1966c-72,330 -279,602 -572,767l-922 514c-1095,608 -1681,1845 -1453,3075l194 1037c64,337 -22,666 -229,930 -207,265 -508,422 -851,443l-1051 65c-1252,72 -2318,930 -2646,2139l-279 1015c-136,507 -601,858 -1123,858 -151,0 -300,-29 -443,-86l-981 -400c-357,-144 -729,-223 -1108,-223 -844,0 -1644,366 -2202,1002l-694 794c-222,257 -537,400 -880,400 -335,0 -644,-136 -865,-386l-708 -786c-551,-615 -1344,-973 -2174,-973 -401,0 -787,78 -1152,236l-972 414c-150,64 -300,94 -457,94 -516,0 -973,-344 -1116,-837l-293 -1016c-351,-1201 -1424,-2045 -2676,-2102l-1058 -43c-337,-14 -644,-165 -851,-429 -214,-265 -300,-593 -243,-923l178 -1043c208,-1238 -392,-2461 -1501,-3054l-929 -501c-301,-157 -509,-429 -587,-758 -79,-329 -15,-665 186,-937l608 -865c722,-1022 715,-2388 -29,-3404l-622 -851c-200,-272 -272,-608 -193,-936 72,-329 279,-602 572,-765l923 -515c1094,-608 1681,-1845 1451,-3076l-186 -1029c-64,-337 22,-666 229,-930 207,-265 508,-422 851,-443l1051 -65c1252,-72 2310,-930 2646,-2138l279 -1022c136,-509 601,-859 1123,-859 151,0 300,29 444,86l980 400c357,143 729,221 1108,221 844,0 1645,-365 2202,-1001l694 -793c222,-258 537,-401 880,-401 336,0 644,137 865,387l708 786c551,615 1344,972 2174,972 401,0 787,-78 1152,-236l973 -414c150,-65 299,-93 457,-93 515,0 972,343 1116,836l293 1016c350,1202 1424,2045 2675,2102l1058 44c337,14 644,164 858,429 216,264 301,593 244,922l-179 1045c-208,1237 393,2459 1502,3053l930 501c300,156 507,429 586,757 78,329 15,666 -179,937l-607 866c-722,1023 -716,2388 28,3404l622 851c171,271 243,606 171,935z"/>
   <path class="fil0" d="M17036 12417c-394,43 -692,376 -692,772 0,6 0,12 0,17l0 425c-1132,190 -1941,1195 -1941,2293 0,1324 1240,2330 2718,2330 866,0 1165,379 1165,777 0,501 -196,776 -777,776l-2330 0c-3,0 -7,0 -11,0 -428,0 -776,348 -776,777 0,429 348,777 776,777 4,0 8,0 11,0l1165 0 0 388c1,3 0,7 0,11 0,429 348,777 777,777 429,0 777,-348 777,-777 0,-4 0,-8 0,-11l0 -425c1132,-191 1941,-1196 1941,-2293 0,-1324 -1240,-2330 -2718,-2330 -866,0 -1165,-379 -1165,-777 0,-501 196,-777 777,-777l2330 0c3,0 7,1 11,1 429,0 776,-348 776,-777 0,-429 -347,-777 -776,-777 -4,0 -8,0 -11,0l-1165 0 0 -388c0,-6 0,-11 0,-17 0,-429 -348,-777 -777,-777 -28,0 -57,2 -85,5l0 0z"/>
   <path class="fil1" d="M17121 7165c5694,0 10310,4616 10310,10310 0,5694 -4616,10310 -10310,10310 -5694,0 -10310,-4616 -10310,-10310 0,-5694 4616,-10310 10310,-10310zm0 1691c4760,0 8619,3859 8619,8619 0,4760 -3859,8618 -8619,8618 -4760,0 -8618,-3858 -8618,-8618 0,-4760 3858,-8619 8618,-8619z"/>
  </g>
 </g>
</svg>
