<?xml version="1.0" encoding="UTF-8"?>
<!DOCTYPE svg PUBLIC "-//W3C//DTD SVG 1.1//EN" "http://www.w3.org/Graphics/SVG/1.1/DTD/svg11.dtd">
<!-- Creator: CorelDRAW Home & Student X7 -->
<svg xmlns="http://www.w3.org/2000/svg" xml:space="preserve" width="42.3332mm" height="41.0584mm" version="1.1" style="shape-rendering:geometricPrecision; text-rendering:geometricPrecision; image-rendering:optimizeQuality; fill-rule:evenodd; clip-rule:evenodd"
viewBox="0 0 104711 101558"
 xmlns:xlink="http://www.w3.org/1999/xlink">
 <defs>
  <style type="text/css">
   <![CDATA[
    .fil0 {fill:black}
   ]]>
  </style>
 </defs>
 <g id="Layer_x0020_1">
  <metadata id="CorelCorpID_0Corel-Layer"/>
  <g id="_595672632">
   <path class="fil0" d="M43368 47129c-20,-1 -41,-1 -62,-1 -763,0 -1480,366 -1927,984 -1206,1617 -3142,2673 -5341,2673 -2214,0 -4134,-1051 -5358,-2680 -447,-615 -1163,-980 -1925,-980 -1314,0 -2380,1066 -2380,2380 0,528 176,1042 500,1460 2085,2775 5426,4580 9163,4580 3728,0 7077,-1800 9156,-4587 319,-416 492,-926 492,-1450 0,-1290 -1028,-2346 -2318,-2379l0 0z" display="inline"/>
   <path class="fil0" d="M36038 0c-16231,0 -29728,12561 -32545,28870 -14,58 -25,116 -34,174 -356,2048 -481,4095 -508,6149l0 22412c0,443 128,886 363,1263 236,376 579,684 978,878 5661,2746 11525,4779 17597,5998 -11318,5766 -19648,18230 -21863,33083 -50,337 -27,685 67,1012 95,328 261,634 484,892 222,259 501,468 811,610 310,142 650,217 991,217l67317 0c341,0 682,-74 992,-217 310,-142 589,-351 811,-609 223,-259 389,-565 484,-893 95,-327 118,-675 67,-1012 -496,-3329 -1302,-6536 -2378,-9576l32659 0c341,0 682,-74 992,-216 309,-142 588,-352 811,-610 222,-258 388,-564 483,-892 95,-327 118,-675 68,-1012 -1729,-11633 -8077,-21507 -16793,-26467 4511,-1013 8872,-2574 13085,-4616 400,-194 743,-502 979,-878 236,-377 363,-820 363,-1264l0 -18115c-16,-1849 -217,-3659 -462,-5281 -2347,-13327 -13396,-23604 -26709,-23604 -5544,0 -10728,1793 -15029,4841 -6032,-6835 -14590,-11137 -24081,-11137l0 0zm0 4760c13790,0 25469,10774 27865,25022 2,13 4,27 6,39 315,1791 418,3575 444,5372l0 20904c-3870,1786 -7814,3209 -11847,4240 3946,-3841 6567,-9037 7085,-14812 0,-1 0,-1 0,-2 0,-1 0,-2 0,-3 313,-5343 96,-11127 96,-16624 0,-454 -134,-907 -380,-1289 -245,-382 -603,-690 -1016,-878 -13195,-5989 -28021,-6731 -44421,-36 -434,177 -814,486 -1076,876 -262,389 -405,858 -405,1327l0 14521c0,197 3,393 8,589 0,23 1,45 2,68 31,1182 146,2349 348,3493 15,93 37,185 63,275 929,4844 3349,9176 6760,12497 -4038,-1031 -7986,-2456 -11859,-4243l0 -20904c21,-1885 217,-3790 447,-5396 0,-1 0,-2 0,-2 2392,-14255 14074,-25035 27880,-25035l0 1zm39109 6296c11290,0 20802,9134 22228,21026 149,1126 154,2059 185,3099l0 16602c-2512,1142 -5063,2096 -7661,2846 2921,-3711 4671,-8846 4802,-12795l0 -11747c0,-454 -133,-907 -379,-1289 -247,-382 -604,-690 -1018,-878 -7852,-3560 -16443,-4860 -25692,-3172 -1044,-3546 -2605,-6859 -4590,-9836 3511,-2449 7667,-3856 12125,-3856l0 0zm-38566 15603c6445,-5 12516,1342 18346,3795 -195,5385 446,11150 -297,16287 -3,19 -6,38 -9,57 -1604,8798 -9347,15508 -18583,15508 -10235,0 -18615,-8216 -18882,-18388 0,-6 0,-12 -2,-19 -3,-160 -6,-320 -6,-481l0 -12903c6889,-2635 13329,-3851 19433,-3856l0 0zm39013 2097c5037,-6 9779,1014 14348,2895l0 10183c0,7423 -5194,14795 -14795,14795 -2153,0 -4191,-461 -6034,-1289 -401,-8519 711,-17852 -454,-25945 2378,-427 4686,-636 6935,-639l0 0zm-8044 31095c2328,984 4888,1532 7561,1537 2,0 3,0 5,0 11,0 21,0 32,0 11385,0 21304,9590 24323,23103l-31767 0c-3972,-8318 -10107,-14970 -17523,-18748 5990,-1203 11778,-3199 17369,-5892l0 0zm-31525 7215c5,0 8,0 13,0 3,0 8,0 12,0 14600,12 27199,12437 30804,29732l-61632 0c3604,-17296 16191,-29725 30803,-29732l0 0z" display="inline"/>
  </g>
 </g>
</svg>
